<svg width="360" height="56" viewBox="0 0 360 56" fill="none" xmlns="http://www.w3.org/2000/svg">
<g clip-path="url(#clip0)">
<path d="M160.13 44.1345V39.2307H162.904C163.164 39.2307 163.38 39.2744 163.597 39.3839C163.792 39.4934 163.965 39.6247 164.074 39.7998C164.182 39.975 164.247 40.1939 164.247 40.4347C164.247 40.6317 164.204 40.8069 164.139 40.9601C164.074 41.1134 163.965 41.2447 163.857 41.3323C163.727 41.4418 163.597 41.5074 163.445 41.5512V41.5731C163.619 41.6169 163.792 41.6826 163.922 41.792C164.052 41.9015 164.182 42.0328 164.247 42.1861C164.334 42.3612 164.377 42.5364 164.377 42.7772C164.377 43.0837 164.312 43.3245 164.182 43.5215C164.052 43.7185 163.879 43.8718 163.64 43.9812C163.402 44.0907 163.164 44.1345 162.904 44.1345H160.13ZM161.192 41.2009H162.6C162.73 41.2009 162.839 41.179 162.925 41.1353C163.012 41.0915 163.077 41.0258 163.12 40.9382C163.164 40.8507 163.185 40.7631 163.185 40.6536C163.185 40.4566 163.142 40.3253 163.034 40.2377C162.925 40.1501 162.795 40.0844 162.622 40.0844H161.17V41.2009H161.192ZM161.192 43.2588H162.709C162.882 43.2588 163.034 43.215 163.142 43.1055C163.25 42.9961 163.315 42.8428 163.315 42.6458C163.315 42.5145 163.294 42.405 163.25 42.3174C163.207 42.2299 163.142 42.1642 163.034 42.0985C162.947 42.0547 162.817 42.0328 162.665 42.0328H161.192V43.2588Z" fill="white"/>
<path d="M172.98 44.222C172.525 44.222 172.156 44.1564 171.831 44.0031C171.506 43.8499 171.268 43.6528 171.094 43.3463C170.921 43.0617 170.834 42.6896 170.834 42.2736V39.2087H171.896V42.2517C171.896 42.602 171.983 42.8866 172.178 43.0617C172.373 43.2588 172.633 43.3463 172.98 43.3463C173.326 43.3463 173.586 43.2588 173.781 43.0617C173.976 42.8647 174.063 42.602 174.063 42.2517V39.2306H175.125V42.2955C175.125 42.7334 175.038 43.0836 174.865 43.3682C174.691 43.6528 174.453 43.8718 174.128 44.025C173.825 44.1345 173.435 44.222 172.98 44.222Z" fill="white"/>
<path d="M181.799 44.1345V39.2307H182.86V44.1345H181.799Z" fill="white"/>
<path d="M189.556 44.1345V39.2307H190.618V43.2369H193.066V44.1564H189.556V44.1345Z" fill="white"/>
<path d="M199.35 44.1345V39.2307H201.344C201.842 39.2307 202.275 39.3182 202.644 39.4934C202.99 39.6685 203.272 39.9312 203.467 40.3034C203.662 40.6536 203.749 41.1353 203.749 41.6826C203.749 42.2518 203.662 42.7115 203.467 43.0618C203.272 43.4339 203.012 43.6966 202.644 43.8718C202.297 44.0469 201.864 44.1345 201.344 44.1345H199.35ZM200.412 43.2369H201.344C201.56 43.2369 201.755 43.215 201.907 43.1493C202.08 43.0837 202.21 42.9961 202.319 42.8647C202.427 42.7334 202.514 42.5801 202.557 42.405C202.622 42.2299 202.644 42.0109 202.644 41.7701V41.5512C202.644 41.3104 202.622 41.0915 202.557 40.9163C202.492 40.7412 202.427 40.588 202.319 40.4566C202.21 40.3253 202.08 40.2377 201.907 40.172C201.734 40.1063 201.56 40.0844 201.344 40.0844H200.412V43.2369Z" fill="white"/>
<path d="M210.206 44.1345V39.2307H211.268V44.1345H210.206Z" fill="white"/>
<path d="M217.963 44.1345V39.2306H218.938L220.889 41.8796C220.91 41.9234 220.954 41.9671 220.997 42.0109C221.04 42.0766 221.084 42.1204 221.127 42.1861C221.17 42.2517 221.192 42.2955 221.214 42.3174H221.257C221.257 42.2298 221.257 42.1642 221.257 42.0766C221.257 41.989 221.257 41.9234 221.257 41.8577V39.2087H222.254V44.1126H221.279L219.285 41.3979C219.242 41.3323 219.198 41.2666 219.133 41.179C219.09 41.0915 219.047 41.0258 219.025 40.982H218.982C218.982 41.0477 218.982 41.1134 218.982 41.2009C218.982 41.2885 218.982 41.3323 218.982 41.3979V44.1126H217.963V44.1345Z" fill="white"/>
<path d="M231.138 44.2221C230.379 44.2221 229.773 44.025 229.361 43.6091C228.949 43.1931 228.732 42.5583 228.732 41.6826C228.732 41.1134 228.841 40.6318 229.036 40.2596C229.231 39.8874 229.512 39.6028 229.903 39.4277C230.293 39.2526 230.726 39.1431 231.268 39.1431C231.593 39.1431 231.874 39.1869 232.156 39.2526C232.438 39.3182 232.676 39.4277 232.893 39.5809C233.109 39.7342 233.283 39.9093 233.391 40.1282C233.499 40.3472 233.564 40.6099 233.564 40.9164H232.503C232.503 40.7631 232.481 40.6318 232.416 40.5223C232.351 40.4128 232.264 40.3034 232.156 40.2377C232.048 40.172 231.918 40.1063 231.766 40.0626C231.614 40.0188 231.463 39.9969 231.311 39.9969C231.073 39.9969 230.856 40.0188 230.661 40.0845C230.466 40.1501 230.314 40.2377 230.206 40.3691C230.076 40.5004 229.989 40.6537 229.924 40.8507C229.859 41.0477 229.838 41.2666 229.838 41.5293V41.7483C229.838 42.0985 229.881 42.405 229.989 42.6239C230.098 42.8429 230.249 43.018 230.466 43.1275C230.683 43.2369 230.943 43.3026 231.246 43.3026C231.506 43.3026 231.723 43.2588 231.918 43.1931C232.113 43.1056 232.264 42.9961 232.373 42.8429C232.481 42.6896 232.546 42.5145 232.546 42.2956V42.2518H231.094V41.4418H233.608V44.0907H232.914L232.828 43.5653C232.676 43.6966 232.524 43.828 232.373 43.9156C232.199 44.0031 232.026 44.0688 231.831 44.1126C231.614 44.2002 231.376 44.2221 231.138 44.2221Z" fill="white"/>
<path d="M249.491 44.222C248.971 44.222 248.537 44.1345 248.147 43.9374C247.779 43.7404 247.497 43.4777 247.281 43.0837C247.086 42.7115 246.977 42.2299 246.977 41.6607C246.977 41.0915 247.086 40.6098 247.281 40.2377C247.476 39.8655 247.757 39.5809 248.147 39.4058C248.516 39.2306 248.971 39.1212 249.491 39.1212C250.011 39.1212 250.466 39.2088 250.834 39.4058C251.203 39.5809 251.484 39.8655 251.679 40.2377C251.874 40.6098 251.983 41.0915 251.983 41.6607C251.983 42.2299 251.874 42.7115 251.679 43.0837C251.484 43.4558 251.203 43.7404 250.834 43.9374C250.466 44.1126 250.033 44.222 249.491 44.222ZM249.491 43.3464C249.729 43.3464 249.924 43.3026 250.098 43.2369C250.271 43.1712 250.423 43.0618 250.531 42.9304C250.639 42.7991 250.748 42.6239 250.791 42.4488C250.856 42.2518 250.878 42.0328 250.878 41.792V41.5731C250.878 41.3104 250.856 41.0915 250.791 40.8944C250.726 40.6974 250.639 40.5442 250.531 40.4128C250.423 40.2815 250.271 40.172 250.098 40.1063C249.924 40.0407 249.729 39.9969 249.491 39.9969C249.274 39.9969 249.057 40.0407 248.884 40.1063C248.711 40.172 248.559 40.2815 248.451 40.4128C248.342 40.5442 248.234 40.6974 248.191 40.8944C248.126 41.0915 248.104 41.3104 248.104 41.5731V41.792C248.104 42.0328 248.126 42.2518 248.191 42.4488C248.256 42.6458 248.342 42.7991 248.451 42.9304C248.559 43.0618 248.711 43.1712 248.884 43.2369C249.079 43.3026 249.274 43.3464 249.491 43.3464Z" fill="white"/>
<path d="M258.462 44.1345V39.2306H259.437L261.387 41.8796C261.409 41.9234 261.452 41.9671 261.495 42.0109C261.539 42.0766 261.582 42.1204 261.625 42.1861C261.669 42.2517 261.69 42.2955 261.712 42.3174H261.755C261.755 42.2298 261.755 42.1642 261.755 42.0766C261.755 41.989 261.755 41.9234 261.755 41.8577V39.2087H262.752V44.1126H261.777L259.783 41.3979C259.74 41.3323 259.697 41.2666 259.632 41.179C259.588 41.0915 259.545 41.0258 259.523 40.982H259.48C259.48 41.0477 259.48 41.1134 259.48 41.2009C259.48 41.2885 259.48 41.3323 259.48 41.3979V44.1126H258.462V44.1345Z" fill="white"/>
<path d="M276.447 44.1345V39.2307H277.508V44.1345H276.447Z" fill="white"/>
<path d="M284.182 44.1345V39.2306H285.157L287.107 41.8796C287.129 41.9234 287.172 41.9671 287.216 42.0109C287.259 42.0766 287.302 42.1204 287.346 42.1861C287.389 42.2517 287.411 42.2955 287.432 42.3174H287.476C287.476 42.2298 287.476 42.1642 287.476 42.0766C287.476 41.989 287.476 41.9234 287.476 41.8577V39.2087H288.473V44.1126H287.497L285.504 41.3979C285.461 41.3323 285.417 41.2666 285.352 41.179C285.309 41.0915 285.266 41.0258 285.244 40.982H285.201C285.201 41.0477 285.201 41.1134 285.201 41.2009C285.201 41.2885 285.201 41.3323 285.201 41.3979V44.1126H284.182V44.1345Z" fill="white"/>
<path d="M296.338 44.1345V40.1063H294.778V39.2087H298.982V40.1063H297.422V44.1345H296.338Z" fill="white"/>
<path d="M305.309 44.1345V39.2307H309.209V40.1063H306.392V41.2009H308.884V42.0766H306.392V43.2807H309.253V44.1564H305.309V44.1345Z" fill="white"/>
<path d="M317.985 44.2221C317.227 44.2221 316.62 44.025 316.208 43.6091C315.797 43.1931 315.58 42.5583 315.58 41.6826C315.58 41.1134 315.688 40.6318 315.883 40.2596C316.078 39.8874 316.36 39.6028 316.75 39.4277C317.118 39.2526 317.573 39.1431 318.115 39.1431C318.44 39.1431 318.722 39.1869 319.003 39.2526C319.285 39.3182 319.523 39.4277 319.74 39.5809C319.957 39.7342 320.13 39.9093 320.239 40.1282C320.347 40.3472 320.412 40.6099 320.412 40.9164H319.35C319.35 40.7631 319.328 40.6318 319.263 40.5223C319.198 40.4128 319.112 40.3034 319.003 40.2377C318.895 40.172 318.765 40.1063 318.613 40.0626C318.462 40.0188 318.31 39.9969 318.158 39.9969C317.92 39.9969 317.703 40.0188 317.508 40.0845C317.313 40.1501 317.162 40.2377 317.053 40.3691C316.923 40.5004 316.837 40.6537 316.772 40.8507C316.707 41.0477 316.685 41.2666 316.685 41.5293V41.7483C316.685 42.0985 316.728 42.405 316.837 42.6239C316.945 42.8429 317.097 43.018 317.313 43.1275C317.53 43.2369 317.79 43.3026 318.093 43.3026C318.353 43.3026 318.57 43.2588 318.765 43.1931C318.96 43.1056 319.112 42.9961 319.22 42.8429C319.328 42.6896 319.393 42.5145 319.393 42.2956V42.2518H317.942V41.4418H320.455V44.0907H319.762L319.675 43.5653C319.523 43.6966 319.372 43.828 319.22 43.9156C319.047 44.0031 318.873 44.0688 318.678 44.1126C318.462 44.2002 318.223 44.2221 317.985 44.2221Z" fill="white"/>
<path d="M327.064 44.1345V39.2307H329.729C330.098 39.2307 330.379 39.2963 330.618 39.4277C330.856 39.559 331.029 39.7342 331.159 39.975C331.289 40.2158 331.333 40.4785 331.333 40.7631C331.333 41.0915 331.268 41.3761 331.116 41.6169C330.964 41.8577 330.769 42.0547 330.509 42.1861L331.506 44.1564H330.336L329.469 42.3612H328.104V44.1564H327.064V44.1345ZM328.126 41.4855H329.599C329.816 41.4855 329.968 41.4199 330.098 41.2885C330.206 41.1572 330.271 40.982 330.271 40.7631C330.271 40.6099 330.249 40.5004 330.184 40.3909C330.119 40.2815 330.054 40.2158 329.968 40.1501C329.859 40.1063 329.751 40.0626 329.599 40.0626H328.126V41.4855Z" fill="white"/>
<path d="M337.877 44.1345V39.2307H338.938V44.1345H337.877Z" fill="white"/>
<path d="M346.826 44.1345V40.1063H345.266V39.2087H349.469V40.1063H347.909V44.1345H346.826Z" fill="white"/>
<path d="M357.053 44.1345V42.1642L355.168 39.2307H356.403L357.617 41.2009H357.66L358.852 39.2307H360L358.115 42.1642V44.1345H357.053Z" fill="white"/>
<path d="M154.54 15.5215V37.4355C154.54 42.1423 152.373 44.5066 148.061 44.5066C147.194 44.5066 146.089 44.3753 144.767 44.1126V40.1063C145.417 40.2815 145.959 40.369 146.414 40.369C147.324 40.369 147.974 40.1063 148.321 39.6028C148.667 39.0774 148.841 38.2893 148.841 37.1947V15.5215H145.612V11.778H157.53V15.5215H154.54Z" fill="white"/>
<path d="M160.065 33.8233V28.4816H165.352V33.8233H160.065Z" fill="white"/>
<path d="M171.224 15.5215L174.756 26.0954L178.115 15.5215H176.1V11.778H183.987V15.5215H181.972L185.547 26.0954L188.992 15.5215H186.782V11.778H195.558V15.5215H193.174L187.107 33.9546H183.055L179.61 23.8843L176.381 33.9328H172.199L165.959 15.4996H163.64V11.778H173.5V15.5215H171.224Z" fill="white"/>
<path d="M191.571 33.8233V28.4816H196.858V33.8233H191.571Z" fill="white"/>
<path d="M224.962 18.5645V15.4996H218.396V20.6005H223.164V24.344H218.396V30.0579H221.798V33.8014H209.577V30.0579H212.698V15.5215H209.577V11.778H229.166V18.5864H224.962V18.5645Z" fill="white"/>
<path d="M231.788 22.724C231.788 20.491 232.286 18.5207 233.304 16.8131C234.323 15.1056 235.753 13.7701 237.595 12.8288C239.437 11.8874 241.56 11.4058 243.965 11.4058C246.37 11.4058 248.472 11.8874 250.314 12.8288C252.156 13.7701 253.564 15.1056 254.583 16.835C255.601 18.5426 256.1 20.5129 256.1 22.724C256.1 24.9789 255.601 26.9492 254.583 28.6568C253.564 30.3644 252.156 31.6998 250.314 32.6411C248.472 33.5825 246.37 34.0641 243.987 34.0641C241.647 34.0641 239.567 33.5825 237.703 32.6411C235.861 31.6998 234.409 30.3644 233.369 28.6568C232.308 26.9492 231.788 24.9789 231.788 22.724ZM249.989 22.7021C249.989 21.3667 249.751 20.1407 249.274 19.0461C248.797 17.9515 248.082 17.0758 247.172 16.4191C246.262 15.7623 245.179 15.4558 243.965 15.4558C242.752 15.4558 241.668 15.7842 240.758 16.4191C239.848 17.0758 239.155 17.9515 238.657 19.0461C238.158 20.1407 237.92 21.3667 237.92 22.7021C237.92 24.1032 238.158 25.373 238.657 26.4895C239.155 27.606 239.848 28.4816 240.758 29.1165C241.668 29.7514 242.709 30.0798 243.9 30.0798C245.135 30.0798 246.197 29.7514 247.129 29.1165C248.061 28.4816 248.754 27.606 249.231 26.4895C249.751 25.373 249.989 24.1032 249.989 22.7021Z" fill="white"/>
<path d="M264.81 15.5215L268.342 26.0954L271.701 15.5215H269.686V11.778H277.573V15.5215H275.558L279.133 26.0954L282.579 15.5215H280.368V11.778H289.144V15.5215H286.761L280.693 33.9546H276.641L273.196 23.8843L269.924 33.9546H265.742L259.502 15.5215H257.205V11.778H267.064V15.5215H264.81Z" fill="white"/>
<path d="M300.347 15.5215V30.0797H306.804V23.2713H311.073V33.8233H291.528V30.0797H294.648V15.5215H291.528V11.778H303.554V15.5215H300.347Z" fill="white"/>
<path d="M329.361 18.7396V15.5215H322.578V20.5786H328.039V24.3002H322.578V30.0797H329.361V26.8178H333.543V33.8233H314.258V30.0797H316.901V15.5215H314.258V11.778H333.543V18.7615H329.361V18.7396Z" fill="white"/>
<path d="M357.421 17.7764C357.421 19.1337 357.118 20.2502 356.49 21.1697C355.861 22.0891 354.93 22.8335 353.651 23.4027L357.183 30.0579H360.022V33.8014H353.369L348.429 24.147H345.937V30.036H348.689V33.7795H337.248V30.036H340.26V15.5215H337.248V11.778H349.729C352.156 11.778 354.041 12.3034 355.406 13.3323C356.75 14.3393 357.421 15.828 357.421 17.7764ZM351.484 18.0391C351.484 17.2072 351.224 16.5723 350.682 16.1564C350.141 15.7404 349.426 15.5215 348.516 15.5215H345.937V20.6443H348.017C350.314 20.6443 351.484 19.7686 351.484 18.0391Z" fill="white"/>
<path d="M126.501 0H0V55.9124H126.501V0Z" fill="#F02300"/>
<path d="M55.4063 20.6005V32.7725C55.4063 37.9171 53.0444 40.4785 48.3423 40.4785C47.3889 40.4785 46.1971 40.3252 44.7454 40.0407V35.9906C45.4604 36.1876 46.0455 36.2752 46.5438 36.2752C47.5406 36.2752 48.559 35.9249 48.949 35.3557C49.3391 34.7865 49.5341 33.9109 49.5341 32.7287V20.6005H45.6771V16.5285H58.6782V20.6224H55.4063V20.6005Z" fill="white"/>
<path d="M69.4475 20.6005L73.3045 32.1376L76.9665 20.6005H74.7563V16.5285H83.3587V20.6224H81.1485L85.0488 32.1595L88.8408 20.6005H86.4356V16.5285H96.0131V20.6224H93.4129L86.804 40.7193H82.3836L78.635 29.7295L75.0813 40.7193H70.5093L63.7054 20.6005H61.1702V16.5285H71.9394V20.6224H69.4475V20.6005Z" fill="white"/>
<path d="M102.145 56V20.6005H98.7432V16.5285H120.108V23.95H115.536V20.6005H108.364V26.9711H113.564V31.0649H108.364V56" fill="white"/>
<path d="M98.7865 44.1345H44.7454V48.8194H98.7865V44.1345Z" fill="white"/>
</g>
<defs>
<clipPath id="clip0">
<rect width="360" height="56" fill="white"/>
</clipPath>
</defs>
</svg>
